<svg width="32" height="32" viewBox="0 0 32 32" fill="none" xmlns="http://www.w3.org/2000/svg">
<rect width="32" height="32" rx="7" fill="#3DAA84"/>
<path d="M16.5 20C18.975 20 21 17.975 21 15.5C21 13.025 18.975 11 16.5 11C14.025 11 12 13.025 12 15.5C12 17.975 14.025 20 16.5 20ZM16.5 12.5C18.15 12.5 19.5 13.85 19.5 15.5C19.5 17.15 18.15 18.5 16.5 18.5C14.85 18.5 13.5 17.15 13.5 15.5C13.5 13.85 14.85 12.5 16.5 12.5Z" fill="#EBF6F2"/>
<path d="M16.5 23C20.5695 23 24.3318 19.5263 26.2514 17.4737C27.2495 16.3684 27.2495 14.6711 26.2514 13.5658C24.3318 11.4737 20.5695 8 16.5 8C12.4305 8 8.66819 11.4737 6.74863 13.5263C5.75046 14.6316 5.75046 16.3684 6.74863 17.4737C8.66819 19.5263 12.4305 23 16.5 23ZM7.90037 14.6316C9.58958 12.7368 13.0064 9.57895 16.5 9.57895C19.9936 9.57895 23.4104 12.7368 25.0996 14.6316C25.5603 15.1053 25.5603 15.8947 25.0996 16.3684C23.4104 18.2632 19.9936 21.4211 16.5 21.4211C13.0064 21.4211 9.58958 18.2632 7.90037 16.3684C7.43967 15.8947 7.43967 15.1053 7.90037 14.6316Z" fill="#EBF6F2"/>
<path d="M16.5 17C17.3284 17 18 16.3284 18 15.5C18 14.6716 17.3284 14 16.5 14C15.6716 14 15 14.6716 15 15.5C15 16.3284 15.6716 17 16.5 17Z" fill="#EBF6F2"/>
</svg>
