<svg width="32" height="32" viewBox="0 0 32 32" fill="none" xmlns="http://www.w3.org/2000/svg">
<rect width="32" height="32" rx="7" fill="#0066B2"/>
<path d="M18.1909 15.2804L18.1908 15.2804L13.3907 13.9376C13.3906 13.9376 13.3904 13.9376 13.3902 13.9375C12.7314 13.7559 12.2647 13.1639 12.2647 12.4939C12.2647 11.6526 12.9741 10.9901 13.8261 10.9901H16.7734C17.363 10.9901 17.9436 11.1608 18.4293 11.4763C18.5997 11.5856 18.8383 11.5608 18.9895 11.419L18.9899 11.4187L20.5369 9.97367L20.5374 9.97322C20.7289 9.7953 20.7147 9.49025 20.479 9.31625L20.4776 9.3152C19.4322 8.53191 18.1243 8.0942 16.7815 8.09012L16.5322 8.08936V7.84012V5.80012C16.5322 5.57466 16.3348 5.37012 16.071 5.37012H14.6485C14.3846 5.37012 14.1872 5.57466 14.1872 5.80012V7.84012V8.09012H13.9372H13.8261C11.1279 8.09012 8.98241 10.3015 9.22945 12.8995M18.1909 15.2804L21.2462 20.9761C20.6035 22.7356 18.7661 23.8649 16.7776 23.9017L16.5322 23.9062V24.1516V26.2001C16.5322 26.4256 16.3348 26.6301 16.071 26.6301H14.6485C14.3846 26.6301 14.1872 26.4256 14.1872 26.2001V24.1601V23.9109L13.938 23.9101C12.5951 23.906 11.2873 23.4683 10.2418 22.685L10.2404 22.684C10.0047 22.51 9.99057 22.2049 10.1821 22.027L10.1826 22.0266L11.7296 20.5816L11.7299 20.5812C11.8811 20.4394 12.1197 20.4147 12.2902 20.5239C12.7758 20.8394 13.3565 21.0101 13.9461 21.0101H16.8934C17.7453 21.0101 18.4548 20.3477 18.4548 19.5064C18.4548 18.8349 17.9867 18.2488 17.3304 18.0631L17.3297 18.0629L12.7732 16.7879C12.7732 16.7879 12.7732 16.7879 12.7732 16.7879C10.8781 16.2574 9.40444 14.7358 9.22945 12.8995M18.1909 15.2804C20.6397 15.9638 22.1467 18.5095 21.2462 20.9761L18.1909 15.2804ZM9.22945 12.8995L8.98057 12.9231M9.22945 12.8995L8.98057 12.9231M8.98057 12.9231C9.16728 14.8824 10.7321 16.4761 12.7058 17.0286L16.7822 7.84012V5.80012C16.7822 5.42612 16.4622 5.12012 16.071 5.12012H14.6485C14.2573 5.12012 13.9372 5.42612 13.9372 5.80012V7.59012V7.84012H13.8261C10.9943 7.84012 8.71829 10.1649 8.98057 12.9231Z" fill="#EBF6F2" stroke="#0066B2" stroke-width="0.5"/>
</svg>
