<svg width="32" height="32" viewBox="0 0 32 32" fill="none" xmlns="http://www.w3.org/2000/svg">
<rect width="32" height="32" rx="7" fill="#3DAA84"/>
<path d="M9.86364 25H22.1364C22.897 24.998 23.6258 24.711 24.1626 24.202C24.6995 23.6931 25.0007 23.0038 25 22.2854V16.4614C25 16.2564 24.9138 16.0599 24.7604 15.915C24.6069 15.77 24.3988 15.6886 24.1818 15.6886C23.9648 15.6886 23.7567 15.77 23.6033 15.915C23.4498 16.0599 23.3636 16.2564 23.3636 16.4614V22.2854C23.3647 22.5941 23.2361 22.8905 23.006 23.1097C22.7759 23.3289 22.4632 23.4529 22.1364 23.4545H9.86364C9.53683 23.4529 9.22407 23.3289 8.99398 23.1097C8.76389 22.8905 8.63528 22.5941 8.63636 22.2854V10.7146C8.63528 10.4059 8.76389 10.1095 8.99398 9.8903C9.22407 9.67111 9.53683 9.54709 9.86364 9.54545H16C16.217 9.54545 16.4251 9.46404 16.5785 9.31913C16.732 9.17421 16.8182 8.97767 16.8182 8.77273C16.8182 8.56779 16.732 8.37124 16.5785 8.22633C16.4251 8.08141 16.217 8 16 8H9.86364C9.10298 8.00205 8.37425 8.28902 7.83738 8.79795C7.3005 9.30688 6.99935 9.99619 7 10.7146V22.2854C6.99935 23.0038 7.3005 23.6931 7.83738 24.202C8.37425 24.711 9.10298 24.998 9.86364 25Z" fill="white"/>
<path d="M14.6896 14.214L14.0195 17.0505C13.9891 17.1792 13.9943 17.3128 14.0345 17.4391C14.0748 17.5654 14.1487 17.6804 14.2496 17.7734C14.3519 17.864 14.4763 17.9305 14.6124 17.9673C14.7484 18.004 14.892 18.0099 15.031 17.9845L18.0935 17.3637C18.2526 17.3314 18.3982 17.2576 18.5131 17.151L26.2536 9.9977C26.4902 9.77905 26.6779 9.51946 26.806 9.23376C26.9341 8.94806 27 8.64185 27 8.33261C27 8.02336 26.9341 7.71715 26.806 7.43145C26.6779 7.14575 26.4902 6.88616 26.2536 6.66751C25.7685 6.23908 25.1233 6 24.4522 6C23.7812 6 23.136 6.23908 22.6509 6.66751L14.9223 13.8278C14.8063 13.9333 14.7255 14.0673 14.6896 14.214ZM23.8518 7.7781C24.0134 7.63505 24.2285 7.55519 24.4522 7.55519C24.676 7.55519 24.8911 7.63505 25.0527 7.7781C25.2098 7.92615 25.2978 8.12524 25.2978 8.33261C25.2978 8.53997 25.2098 8.73906 25.0527 8.88711L24.4522 9.44201L23.2513 8.33221L23.8518 7.7781ZM16.293 14.7744L22.0462 9.44437L23.2352 10.5487L17.4795 15.8803L15.955 16.1895L16.293 14.7744Z" fill="white"/>
</svg>
